<svg width="32" height="32" fill="none" xmlns="http://www.w3.org/2000/svg"><path d="M25.29 19.823c-.655-.682-1.445-1.047-2.282-1.047-.831 0-1.628.358-2.31 1.04l-2.135 2.128c-.175-.095-.35-.183-.52-.27a8.969 8.969 0 01-.668-.358c-2-1.27-3.816-2.925-5.559-5.066-.844-1.067-1.411-1.965-1.823-2.877.554-.507 1.067-1.033 1.567-1.54.189-.189.378-.385.567-.574 1.418-1.418 1.418-3.255 0-4.674l-1.844-1.843c-.21-.21-.425-.426-.628-.642-.405-.419-.83-.851-1.27-1.256-.655-.649-1.438-.993-2.262-.993-.824 0-1.621.344-2.296.993l-.014.013-2.296 2.317A4.941 4.941 0 00.05 8.314c-.162 1.973.419 3.81.865 5.012 1.094 2.951 2.728 5.686 5.166 8.618 2.959 3.532 6.518 6.321 10.584 8.287 1.553.736 3.626 1.607 5.943 1.755.142.007.29.014.425.014 1.56 0 2.87-.56 3.897-1.675.007-.013.02-.02.027-.034.352-.425.757-.81 1.182-1.222.29-.277.588-.567.878-.871.669-.696 1.02-1.506 1.02-2.337 0-.838-.358-1.641-1.04-2.317l-3.708-3.721zm2.418 7.112c-.007 0-.007.006 0 0-.263.283-.533.54-.824.824-.439.418-.885.857-1.303 1.35-.683.73-1.486 1.074-2.54 1.074-.101 0-.21 0-.31-.006-2.006-.129-3.87-.912-5.268-1.58-3.823-1.852-7.18-4.479-9.97-7.808-2.302-2.776-3.842-5.343-4.862-8.098-.628-1.682-.858-2.992-.756-4.228a3.1 3.1 0 01.932-2.006L5.11 4.154c.33-.31.682-.48 1.026-.48.426 0 .77.257.986.473l.02.02c.413.385.804.784 1.216 1.21.21.216.426.432.642.655l1.844 1.843c.716.716.716 1.378 0 2.094-.196.196-.385.392-.581.58a35.261 35.261 0 01-1.695 1.649c-.014.013-.027.02-.034.034-.58.58-.473 1.148-.351 1.533l.02.06c.48 1.162 1.155 2.256 2.182 3.56l.006.006c1.864 2.297 3.83 4.087 5.998 5.458.277.175.56.317.83.452.244.122.473.237.67.358.026.014.053.034.08.047.23.115.446.17.669.17.56 0 .911-.352 1.026-.467l2.31-2.31c.23-.23.595-.506 1.02-.506.419 0 .763.263.973.493l.013.013 3.721 3.722c.696.689.696 1.398.007 2.114zM17.294 7.612a8.564 8.564 0 014.66 2.418 8.609 8.609 0 012.418 4.66.905.905 0 00.898.756.913.913 0 00.905-1.067 10.416 10.416 0 00-2.925-5.64 10.417 10.417 0 00-5.64-2.924.917.917 0 00-1.053.743.902.902 0 00.737 1.054zm14.668 6.504a17.137 17.137 0 00-4.816-9.287A17.137 17.137 0 0017.86.014a.908.908 0 00-1.047.743c-.081.5.25.966.75 1.053 3.147.534 6.017 2.027 8.3 4.303a15.3 15.3 0 014.302 8.3c.075.446.46.756.899.756.054 0 .1-.006.155-.013a.895.895 0 00.743-1.04z" fill="#fff"/></svg>