<svg width="479" height="490" fill="none" xmlns="http://www.w3.org/2000/svg"><path fill-rule="evenodd" clip-rule="evenodd" d="M-277 131.636c.892 13.238 5.835 19.259 28.695 42.195 35.078 35.139 64.917 54.236 108.142 76.138 6.956 3.516 18.58 9.124 26.727 11.031 0-100.591 30.296-193.781 93.978-265.507L12.76-38.451c4.394-4.367 7.872-6.596 12.609-11.008 11.738-10.962 38.968-29.6 52.194-37.598 19.382-11.675 38.168-20.661 60.204-29.532 14.713-5.929 55.879-19.718 71.233-20.063-11.739-17.581-77.915-54.765-104.39-64.118C55.848-218.007.816-232.554-53.736-226.671c-11.052 1.195-27.139 11.261-36.59 16.938C-201.075-143.27-277-24.639-277 107.942v23.694zM21.914 305.161c-25.168 0-95.197-7.892-114.914-17.395 5.175 62.518 31.58 126.048 65.403 176.095C-15.734 481.44 74.402 490 92.745 490h17.496c17.656-.345 24.205-3.405 56.174-23.999 38.061-24.529 36.893-28.694 59.45-46.181l26.221-27.382C310.596 326.008 343 235.257 343 144c-3.55 1.289-1.26.322-3.733 2.554l-46.19 51.588c-69.021 66.683-175.188 107.019-271.163 107.019z" fill="#00ABED"/><path fill-rule="evenodd" clip-rule="evenodd" d="M251.732-123.439c3.332 5.029 7.28 7.578 11.364 12.239 43.359 49.414 73.573 109 88.429 174.42 17.001 75.016 10.976 150.125-14.902 221.881-6.527 18.094-8.443 19.862-14.742 34.076-10.953 24.73-27.407 48.656-43.267 70.034-12.049 16.234-23.756 28.656-38.246 41.974-18.918 17.382-20.447 19.931-43.29 36.877-5.181 3.835-15.929 9.621-19.078 13.938 9.676-.804 24.007-5.258 32.747-8.083 35.896-11.527 53.65-18.714 86.968-38.714 8.991-5.373 16.521-10.585 24.577-16.28l23.916-18.53C451.979 305.376 504.762 174.952 466.63 20.028c-9.288-37.704-28.663-79.54-49.566-110.975-2.122-3.192-2.944-4.57-4.952-7.647-2.784-4.294-2.168-4.523-7.53-6.613C363.117-121.372 313.278-125 265.835-125c-7.873 0-7.006 1.401-14.103 1.561zM385-132c-1.785-6.736-10.456-12.808-15.329-17.712-40.268-40.258-89.435-72.519-143.682-90.666-36.149-12.098-71.36-18.949-106.777-20.622h-34.41c-25.237 1.169-50.724 4.949-76.921 11.319-1.51.367-4.05.848-6.338 1.512L-5-245.282l54.384 8.524c62.049 12.258 133.706 48.736 179.442 91.079 9.22 8.546 14.368 2.543 41.366 1.077C324.324-147.512 373.08-132.275 385-132zM-57 455c-1.51-6.464-14.972-27.345-19.115-37.545-6.25-15.471-10.256-21.912-16.506-40.157-8.15-23.723-19.459-69.863-19.459-95.42-7.44-1.742-15.567-5.432-22.961-8.527-27.196-11.391-39.398-19.368-64.511-34.633-4.029-2.453-5.54-3.897-9.18-6.533-15.43-11.185-40.634-31.379-54.05-45.108-3.411-3.484-5.082-6.762-8.218-9.077 0 27.184 17.765 68.19 28.776 93.976 26.899 62.987 85.183 126.593 144.796 162.074C-88.454 439.391-66.523 452.777-57 455zm442-587v2l2-1.681-2-.319z" fill="#00ABED"/></svg>