<svg width="178" height="56" fill="none" xmlns="http://www.w3.org/2000/svg"><g clip-path="url(#clip0)" fill-rule="evenodd" clip-rule="evenodd" fill="#00ABED"><path d="M.887 29.407c.065.972.428 1.414 2.106 3.097 2.575 2.58 4.765 3.981 7.937 5.589.51.258 1.364.67 1.962.81 0-7.384 2.224-14.224 6.898-19.488l2.365-2.492c.322-.32.577-.484.925-.807.862-.805 2.86-2.173 3.831-2.76 1.423-.857 2.801-1.517 4.419-2.168 1.08-.435 4.101-1.447 5.228-1.472-.861-1.29-5.718-4.02-7.662-4.706-3.579-1.265-7.618-2.333-11.622-1.901-.811.087-1.992.826-2.686 1.243C6.46 9.23.887 17.937.887 27.668v1.74zm101.82 8.569V30.68c.395 0 1.853.149 2.177.25.67.204.94.722.94 1.488v3.59c0 1.794-1.126 1.97-3.117 1.97zm1.618-10.772h-1.618v-5.79c3.356 0 3.117.681 3.117 3.705 0 1.205-.297 2.085-1.499 2.085zm-9.122 14.594h10.737c2.938 0 6.205-.022 7.09-2.616.571-1.677.871-7.422-.709-8.882-.605-.559-2.392-1.333-3.495-1.358.077-.928 1.028-.18 2.769-1.276 1.839-1.155 1.396-5.137.682-6.82-.386-.91-1.023-1.543-1.869-2.062-1.621-.994-4.12-1.193-6.661-1.193h-8.544v24.207zm29.207-3.822V30.68c.409.009.842.085 1.381.122.378.025.993.183 1.231.386.689.582.695 5.4.02 6.185-.416.488-1.73.604-2.632.604zm1.502-10.772h-1.502v-5.79c2.856 0 2.815.52 3.055 2.15.063.415-.008 1.938-.094 2.441-.141.828-.556 1.2-1.459 1.2zm1.315 14.594c8.033 0 7.781-1.638 7.805-7.877.005-1.19-.103-1.849-.46-2.663-.316-.717-.822-1.228-1.539-1.584-.532-.263-1.804-.717-2.504-.732v-.464c.751 0 1.737-.344 2.274-.614.852-.429 1.117-.62 1.438-1.569.495-1.462.21-3.967-.262-5.215-1.206-3.193-5.13-3.489-8.364-3.489-.383.302-7.592.096-8.709.096v24.015l10.229.06c.018-.03.063.02.092.036zm-104.405.348c-1.845 0-6.981-.579-8.427-1.275.38 4.583 2.316 9.24 4.796 12.909.87 1.288 7.48 1.916 8.826 1.916H29.3c1.295-.026 1.776-.25 4.12-1.76 2.792-1.798 2.706-2.103 4.36-3.385l1.923-2.007c4.292-4.87 6.668-11.523 6.668-18.212-.26.094-.092.023-.274.187L42.71 34.3c-5.062 4.888-12.849 7.845-19.888 7.845zm124.561-3.591c-.62 0-1.144-.15-1.36-.604-.493-1.034-.257-12.83-.257-14.916 0-.466.112-1.257.28-1.572.281-.522 2.723-1.777 2.723 1.804 0 2.122.156 12.931-.182 14.296-.166.664-.717.992-1.204.992zm-9.236-10.192l.111 7.417c.134 4.56 4.221 6.48 8.085 6.48 3.495 0 7.034-.283 8.954-3.177.762-1.147.986-2.386.976-4.234-.01-1.756.114-3.252.114-5.096 0-1.34-.086-6.265-.292-7.467-.6-3.482-4.639-5.159-7.904-5.159h-1.848c-2.821 0-5.636 1.208-6.862 2.844-1.584 2.119-1.334 5.317-1.334 8.392zm27.939 2.46l.462-.033 4.041 10.843c.613.24 5.452.078 6.57.078V17.679c-1.362 0-5.012-.169-6.11.07v10.729c-.788 0-.386.197-.925-1.04a44.57 44.57 0 01-.575-1.39c-.311-.782-3.162-7.972-3.463-8.359l-6.234-.003v24.016h6.118c.02-1.383-.146-10.422.116-10.88zM71.42 27.204h-1.04v-5.79c1.546 0 2.888.172 2.888 1.737v2.201c0 1.314-.536 1.852-1.848 1.852zm-1.04 3.524c.503-.083 1.947.125 2.27.34.507.338.618 1.283.618 2.113.208.474.094 7.386.094 8.521h6.832l-.018-4.885c-.002-.264-.015-.56-.01-.82.001-.077.007-.26.018-.332l.02-.098.066-.172a.35.35 0 01.04-.079c0-2.343.198-4.526-2.408-5.463-1.305-.471-1.724-.267-1.865-.795.27-.13.958-.174 1.36-.26 1.378-.293 2.295-.637 2.656-2.197.41-1.773.358-4.197-.252-5.72-1.407-3.519-6.091-3.29-9.786-3.29-.395.3-6.104.103-7.128.103v24h7.422c.003-1.383-.155-10.494.072-10.966z"/><path d="M39.677 10.642c.245.37.535.556.836.899 3.191 3.63 5.415 8.007 6.508 12.813 1.251 5.51.808 11.028-1.097 16.299-.48 1.33-.621 1.46-1.084 2.503-.807 1.817-2.018 3.575-3.185 5.145-.887 1.192-1.748 2.105-2.815 3.083-1.392 1.277-1.505 1.464-3.186 2.71-.381.281-1.172.706-1.404 1.023.712-.059 1.767-.386 2.41-.594 2.642-.846 3.949-1.374 6.4-2.844a27.177 27.177 0 001.81-1.195l1.76-1.362c7.784-6.98 11.67-16.56 8.863-27.941-.684-2.77-2.11-5.843-3.648-8.152-.156-.235-.217-.336-.365-.562-.205-.316-.16-.332-.554-.486-3.052-1.187-6.72-1.454-10.212-1.454-.579 0-.515.103-1.037.115zm44.358 31.031h7.402l.002-23.957h-7.4l-.004 23.957zm-34.546-31.61c-.131-.496-.768-.943-1.126-1.304-2.956-2.963-6.565-5.338-10.547-6.674-2.654-.89-5.239-1.395-7.838-1.518H27.45a29.529 29.529 0 00-5.646.833c-.11.027-.297.062-.465.111l-.48.213 3.992.627c4.555.903 9.815 3.588 13.172 6.705.677.63 1.055.188 3.037.08 3.974-.215 7.553.907 8.428.927zM17.048 53.149c-.11-.476-1.098-2.013-1.402-2.763-.459-1.139-.753-1.613-1.211-2.956-.598-1.745-1.428-5.14-1.428-7.022-.546-.128-1.142-.4-1.685-.627-1.995-.838-2.89-1.425-4.733-2.549-.295-.18-.406-.286-.673-.48-1.132-.824-2.981-2.31-3.965-3.32-.25-.256-.373-.498-.603-.668 0 2 1.303 5.018 2.11 6.916 1.974 4.635 6.25 9.316 10.624 11.927.658.393 2.267 1.378 2.966 1.542z"/><path d="M84.038 17.716h7.4l-.001 23.957h-7.402l.003-23.957zm-.147 24.082h7.62V17.591h-7.62v24.207zm-13.507-11.07c-.227.472-.069 9.583-.072 10.966H62.89v-24c1.024 0 6.733.198 7.128-.103h-7.252v24.207h7.618v-11.07zm95.701.095c-.262.457-.096 9.496-.116 10.88h-6.119V17.685l6.235.003c-.644-.344-2.263-.098-3.118-.098h-3.233v24.207h6.351V30.822zm-38.857 10.975c-.029-.017-.074-.065-.092-.037l-10.229-.059V17.688c1.117 0 8.326.205 8.709-.097h-8.823v24.207h10.435zm43.362-.165c.185.316.569.167 1.5.165h5.194V17.591h-4.732c-.43-.001-1.171-.128-1.502.159 1.098-.24 4.748-.07 6.11-.07v24.03c-1.118 0-5.957.163-6.57-.077zm-90.278-6.317a.352.352 0 00-.04.08l-.066.171-.02.098a3.6 3.6 0 00-.019.333c-.005.26.009.555.01.82l.019 4.884h-6.832c0-1.135.114-8.047-.095-8.521v8.617h7.043v-6.482zM49.488 10.063v.117l.135-.098-.135-.019z"/></g><defs><clipPath id="clip0"><path fill="#fff" d="M0 0h177.333v56H0z"/></clipPath></defs></svg>