<svg id="icons" enable-background="new 0 0 64 64" height="512" viewBox="0 0 64 64" width="512" xmlns="http://www.w3.org/2000/svg"><g><g><path d="m43.004 49.5c3.871 0 7 3.13 7 7 0 3.86-3.129 7-7 7-3.869 0-7-3.14-7-7 0-3.87 3.131-7 7-7zm1.621 9 1.01-3.09-2.631-1.91-2.629 1.91 1 3.09z" fill="#e6e9ed"/></g><g><path d="m45.635 55.41-1.01 3.09h-3.25l-1-3.09 2.629-1.91z" fill="#656d78"/></g><g><path d="m33.006 61.5v1h-7.01v-1c0-1.94 1.57-3.5 3.51-3.5 1.93 0 3.5 1.56 3.5 3.5z" fill="#656d78"/></g><path d="m25.996 52.5h-7v9c0-1.94 1.57-3.5 3.5-3.5 1.939 0 3.5 1.56 3.5 3.5 0-1.94 1.57-3.5 3.51-3.5 1.93 0 3.5 1.56 3.5 3.5v-9z" fill="#e6e9ed"/><path d="m25.996 45.5h-7v7h7 7.01v-7z" fill="#4a89dc"/><g><path d="m25.996 62.5h-7v-1c0-1.94 1.57-3.5 3.5-3.5 1.939 0 3.5 1.56 3.5 3.5z" fill="#656d78"/></g><g><path d="m37.996 32.53v10.46c0 1.39-1.121 2.5-2.5 2.5-1.291 0-2.361-.98-2.49-2.24v-10.72z" fill="#d3b1a9"/></g><g><path d="m18.996 32.53v10.46c0 1.39-1.121 2.5-2.5 2.5-1.381 0-2.5-1.11-2.5-2.5v-10.46z" fill="#d3b1a9"/></g><g><path d="m25.996 21.5c1.459 0 2.83-.39 4-1.07v2.07c0 2.21-1.791 4.01-4 4.01-2.211 0-3.99-1.79-4-4v-.01-2.07c1.17.68 2.539 1.07 4 1.07z" fill="#d3b1a9"/></g><g><path d="m18.996 32.53h-5v-6.02c0-2.22 1.789-4 4.01-4h3.99c.01 2.21 1.789 4 4 4 2.209 0 4-1.8 4-4.01h4c2.209 0 4 1.79 4 4v6.03h-4.99v10.72 2.25h-7.01-7v-2.51z" fill="#5d9cec"/></g><g><path d="m17.996 8.5c0-4.42 3.58-8 8-8h4v4c2.219 0 4.01 1.79 4.01 4v2.97h-.01l-3-1.97s-2 1-5 1-5-1-5-1l-3 1.97z" fill="#965353"/></g><g><path d="m33.996 11.47h.01v2.03c0 2.96-1.609 5.55-4.01 6.93-1.17.681-2.541 1.07-4 1.07-1.461 0-2.83-.39-4-1.07-2.391-1.38-4-3.97-4-6.93v-2.03l3-1.97s2 1 5 1 5-1 5-1z" fill="#eac6bb"/></g><path d="m24.998 52.5v6.554c.617.63.998 1.49.998 2.446 0-.956.383-1.817 1.002-2.448v-6.552h-1.002z" fill="#ccd1d9"/><path d="m24.998 45.5v7h.998 1.002v-7h-1.002z" fill="#3679ce"/><g><path d="m32 63.498h-5c-.553 0-1-.447-1-1s.447-1 1-1h5c.553 0 1 .447 1 1s-.447 1-1 1z" fill="#656d78"/></g><g><path d="m24.996 63.498h-5c-.553 0-1-.447-1-1s.447-1 1-1h5c.553 0 1 .447 1 1s-.447 1-1 1z" fill="#656d78"/></g><g><path d="m25.994 37.5c-.553 0-1-.447-1-1v-4c0-.553.447-1 1-1s1 .447 1 1v4c0 .553-.447 1-1 1z" fill="#e6e9ed"/></g><path d="m33.006 32.53h.994v-3.017c0-.552-.445-.998-.996-.999v4.016z" fill="#4a89dc"/><path d="m34 44.982v-12.452h-.994v10.72c.072.711.451 1.325.994 1.732z" fill="#c6a199"/><path d="m18.986 32.53v-4.016c-.551.001-.996.447-.996.999v3.017h.994z" fill="#4a89dc"/><path d="m17.99 44.982v-12.452h.994v10.72c-.072.711-.451 1.325-.994 1.732z" fill="#c6a199"/></g></svg>