<svg id="icons" enable-background="new 0 0 64 64" height="512" viewBox="0 0 64 64" width="512" xmlns="http://www.w3.org/2000/svg"><g><g><path d="m61 7.498h-58c-1.1 0-2 .9-2 2v36h.04 61.96v-36c0-1.1-.899-2-2-2z" fill="#e6e9ed"/></g><g><path d="m11.001 16.999c1.376 0 2.5 1.126 2.5 2.5 0 1.375-1.124 2.5-2.5 2.5-1.387 0-2.5-1.125-2.5-2.5 0-1.374 1.113-2.5 2.5-2.5z" fill="#ed5565"/></g><g><path d="m53.039 16.999c1.388 0 2.5 1.126 2.5 2.5 0 1.375-1.112 2.5-2.5 2.5-1.375 0-2.5-1.125-2.5-2.5 0-1.374 1.125-2.5 2.5-2.5z" fill="#5d9cec"/></g><g><path d="m14.99 54.498h6.02 22.02 5.97c1.11 0 2 .89 2 2v1h-38.01v-1c0-1.11.89-2 2-2z" fill="#656d78"/></g><g><path d="m21.01 49.498h22.021v5h-22.021z" fill="#545c66"/></g><g><path d="m1.04 45.498h61.96v2c0 1.1-.899 2-2 2h-17.97-22.02-18.01c-1.1 0-2-.9-2-2v-2z" fill="#656d78"/></g><g><g><path d="m43.01 17.789c1.09 1.729 1.791 3.739 1.94 5.89h-.011l-3.959 3.87.939 5.54c-1.33 1.56-3.02 2.81-4.939 3.609v-.01l-4.98-2.62-4.99 2.62v.01c-1.92-.8-3.609-2.05-4.939-3.619l.949-5.53-3.969-3.87c.149-2.15.85-4.16 1.939-5.89 2.3-3.67 6.369-6.101 11.01-6.101 4.63 0 8.71 2.431 11.01 6.101zm-7.76 10.899 2.02-6.18-5.27-3.82-5.27 3.82 2.01 6.18z" fill="#fff"/></g><g><path d="m36.98 36.688v.01c-1.53.641-3.221.99-4.98.99-1.77 0-3.449-.35-4.99-.99v-.01l4.99-2.62z" fill="#656d78"/></g><g><path d="m44.948 23.655.009.003c.137 1.653-.054 3.369-.597 5.043-.547 1.684-1.398 3.173-2.484 4.439l-.009-.003-.95-5.556z" fill="#656d78"/></g><g><path d="m35.015 12.05.006-.007c1.614.381 3.188 1.092 4.611 2.125 1.433 1.041 2.585 2.311 3.454 3.735l-.005.007-5.577-.813z" fill="#656d78"/></g><g><path d="m20.907 17.911-.005-.008c.861-1.417 2.024-2.693 3.446-3.729 1.433-1.04 2.996-1.744 4.62-2.13l.005.007-2.496 5.053z" fill="#656d78"/></g><g><path d="m22.122 33.139-.008.003c-1.082-1.257-1.937-2.758-2.482-4.431-.547-1.684-.733-3.388-.598-5.052l.008-.002 4.033 3.935z" fill="#656d78"/></g><g><path d="m37.27 22.509-2.02 6.179h-6.51l-2.01-6.179 5.27-3.821z" fill="#656d78"/></g></g><g><path d="m61 50.498h-58c-1.654 0-3-1.346-3-3v-37.996c0-1.654 1.346-3 3-3h58c1.654 0 3 1.346 3 3v37.996c0 1.654-1.346 3-3 3zm-58-41.996c-.552 0-1 .448-1 1v37.996c0 .552.448 1 1 1h58c.552 0 1-.448 1-1v-37.996c0-.552-.448-1-1-1z" fill="#656d78"/></g><g><path d="m32.054 48.994c-.553 0-1.005-.447-1.005-1s.442-1 .994-1h.011c.552 0 1 .447 1 1s-.449 1-1 1z" fill="#545c66"/></g><g><path d="m45 42.511h-26c-.553 0-1-.447-1-1s.447-1 1-1h26c.553 0 1 .447 1 1s-.447 1-1 1z" fill="#ccd1d9"/></g><g><g><path d="m15.001 25.494h-8c-.553 0-1-.447-1-1s.447-1 1-1h8c.553 0 1 .447 1 1s-.447 1-1 1z" fill="#ccd1d9"/></g><g><path d="m15.001 28.498h-8c-.553 0-1-.447-1-1s.447-1 1-1h8c.553 0 1 .447 1 1s-.447 1-1 1z" fill="#ccd1d9"/></g><g><path d="m15.001 31.502h-8c-.553 0-1-.447-1-1s.447-1 1-1h8c.553 0 1 .447 1 1s-.447 1-1 1z" fill="#ccd1d9"/></g><g><path d="m13.001 34.506h-4c-.553 0-1-.447-1-1s.447-1 1-1h4c.553 0 1 .447 1 1s-.447 1-1 1z" fill="#ccd1d9"/></g><g><path d="m57.042 25.494h-8c-.553 0-1-.447-1-1s.447-1 1-1h8c.553 0 1 .447 1 1s-.447 1-1 1z" fill="#ccd1d9"/></g><g><path d="m57.042 28.498h-8c-.553 0-1-.447-1-1s.447-1 1-1h8c.553 0 1 .447 1 1s-.447 1-1 1z" fill="#ccd1d9"/></g><g><path d="m57.042 31.502h-8c-.553 0-1-.447-1-1s.447-1 1-1h8c.553 0 1 .447 1 1s-.447 1-1 1z" fill="#ccd1d9"/></g><g><path d="m55.042 34.506h-4c-.553 0-1-.447-1-1s.447-1 1-1h4c.553 0 1 .447 1 1s-.447 1-1 1z" fill="#ccd1d9"/></g></g></g></svg>