<svg width="72" height="71" fill="none" xmlns="http://www.w3.org/2000/svg"><g filter="url(#filter0_d)"><path d="M44.423 10h-27.43c-3.786 0-6.854 3.047-6.854 6.807v27.242c0 3.76 3.068 6.807 6.854 6.807h27.43c3.785 0 6.854-3.047 6.854-6.807V16.807c0-3.76-3.069-6.807-6.854-6.807z" fill="#56CCF2"/></g><path d="M41 29h-4.17l3.24-3.24-1.41-1.42L34 29h-2v-2l4.66-4.66-1.42-1.41L32 24.17V20h-2v4.17l-3.24-3.24-1.42 1.41L30 27v2h-2l-4.66-4.66-1.41 1.42L25.17 29H21v2h4.17l-3.24 3.24 1.41 1.42L28 31h2v2l-4.66 4.66 1.42 1.41L30 35.83V40h2v-4.17l3.24 3.24 1.42-1.41L32 33v-2h2l4.66 4.66 1.41-1.42L36.83 31H41v-2z" fill="#fff"/><defs><filter id="filter0_d" x=".139" y="0" width="71.138" height="70.856" filterUnits="userSpaceOnUse" color-interpolation-filters="sRGB"><feFlood flood-opacity="0" result="BackgroundImageFix"/><feColorMatrix in="SourceAlpha" values="0 0 0 0 0 0 0 0 0 0 0 0 0 0 0 0 0 0 127 0"/><feOffset dx="5" dy="5"/><feGaussianBlur stdDeviation="7.5"/><feColorMatrix values="0 0 0 0 0 0 0 0 0 0 0 0 0 0 0 0 0 0 0.15 0"/><feBlend in2="BackgroundImageFix" result="effect1_dropShadow"/><feBlend in="SourceGraphic" in2="effect1_dropShadow" result="shape"/></filter></defs></svg>