<svg width="72" height="71" fill="none" xmlns="http://www.w3.org/2000/svg"><g filter="url(#filter0_d)"><path d="M44.284 10h-27.43C13.069 10 10 13.047 10 16.807v27.242c0 3.76 3.069 6.807 6.854 6.807h27.43c3.786 0 6.854-3.047 6.854-6.807V16.807c0-3.76-3.068-6.807-6.854-6.807z" fill="#F2C94C"/></g><path d="M40 27c0-5-4-9-9-9s-9 4-9 9c0 3.1 1.6 5.9 4 7.5V37c0 1.3.8 2.4 2 2.8v.2c0 1.7 1.3 3 3 3s3-1.3 3-3v-.2c1.2-.4 2-1.5 2-2.8v-2.5c2.4-1.6 4-4.4 4-7.5zm-16 0c0-3.9 3.1-7 7-7s7 3.1 7 7c0 3.5-2.6 6.4-6 6.9v-2.5l1.7-1.7c.4-.4.4-1 0-1.4-.4-.4-1-.4-1.4 0L31 29.6l-1.3-1.3c-.4-.4-1-.4-1.4 0-.4.4-.4 1 0 1.4l1.7 1.7v2.5c-3.4-.5-6-3.4-6-6.9zm7 14c-.6 0-1-.4-1-1h2c0 .6-.4 1-1 1zm3-4c0 .6-.4 1-1 1h-4c-.6 0-1-.4-1-1v-1.5c.9.3 1.9.5 3 .5s2.1-.2 3-.5V37z" fill="#fff"/><defs><filter id="filter0_d" x="0" y="0" width="71.138" height="70.856" filterUnits="userSpaceOnUse" color-interpolation-filters="sRGB"><feFlood flood-opacity="0" result="BackgroundImageFix"/><feColorMatrix in="SourceAlpha" values="0 0 0 0 0 0 0 0 0 0 0 0 0 0 0 0 0 0 127 0"/><feOffset dx="5" dy="5"/><feGaussianBlur stdDeviation="7.5"/><feColorMatrix values="0 0 0 0 0 0 0 0 0 0 0 0 0 0 0 0 0 0 0.15 0"/><feBlend in2="BackgroundImageFix" result="effect1_dropShadow"/><feBlend in="SourceGraphic" in2="effect1_dropShadow" result="shape"/></filter></defs></svg>